# xmcd CD database file
# Copyright (C) 1993-1996 Ti Kan
#
# Track frame offsets:
#  150
#  15170
#  25735
#  42677
#  57022
#  73397
#  89392
#  106310
#  123142
#  137122
#  159630
#  176050
#  178585
#  183362
#  187647
#  190325
#  193220
#  195925
#
# Disc length: 2646 seconds
#
# Revision: 2
# Processed by: cddbd v1.5.1PL2 Copyright (c) Steve Scherf et al.
# Submitted via: Advanced CD Ripper Pro 2.0
#
DISCID=f20a5412
DTITLE=Various Artist - CDX 149 Novcember 1996
DYEAR=1996
DGENRE=other
TTITLE0=Ty England - All of the above
TTITLE1=Rhett Akins - Every cowboy's dream
TTITLE2=Clint Black - Half way up
TTITLE3=Lonestar - Heartbroke every day
TTITLE4=David Ball - I'll never make it through this fall
TTITLE5=George Strait - King of the mountain
TTITLE6=Billy Ray Cyrus - Three little words
TTITLE7=James House - Until you set me free
TTITLE8=Mark Worsham - Trail of tears
TTITLE9=Roy D Mercer - Dead rooster
TTITLE10=Doug Wayne - Alomst time for christmas
TTITLE11=Various Artist - PSA
TTITLE12=Various Artist - PSA
TTITLE13=Collin Raye - PSA
TTITLE14=Kevin Sharp - PSA
TTITLE15=Kevin Sharp - PSA
TTITLE16=Kevin Sharp - PSA
TTITLE17=Kevin Sharp - PSA
EXTD=
EXTT0=
EXTT1=
EXTT2=
EXTT3=
EXTT4=
EXTT5=
EXTT6=
EXTT7=
EXTT8=
EXTT9=
EXTT10=
EXTT11=
EXTT12=
EXTT13=
EXTT14=
EXTT15=
EXTT16=
EXTT17=
PLAYORDER=
